<svg xmlns="http://www.w3.org/2000/svg" viewBox="0 0 298.4 103.1"><style>.a{fill:#21252B;}.b{fill:#797D85;}</style><rect width="80.7" height="103.1" class="a"/><path d="M13.6 18.1h47.7L12.8 85.7c-0.4 0.6-0.6 1.3-0.6 1.9v2h55.9v-4.6H19.5l48.3-67.4c0.5-0.7 0.8-1.5 0.8-2.2v-1.9h-55V18.1z" class="b"/><rect x="92.6" width="112" height="103.1" class="a"/><rect x="105.3" y="13.5" width="5.5" height="76.1" class="b"/><path d="M184.3 23.3c-3.2-3.4-7-6-11.5-7.9 -4.4-1.8-9.4-2.8-14.8-2.8 -5.3 0-10.2 0.9-14.7 2.8 -4.4 1.9-8.3 4.5-11.5 7.9 -3.2 3.4-5.7 7.5-7.4 12.3 -1.8 4.8-2.7 10.1-2.7 15.9 0 5.9 0.9 11.2 2.7 16 1.8 4.8 4.3 8.9 7.4 12.3 3.2 3.4 7 6 11.5 7.9 4.4 1.8 9.3 2.8 14.7 2.8 5.4 0 10.3-0.9 14.8-2.8 4.4-1.8 8.3-4.5 11.5-7.9 3.2-3.4 5.7-7.5 7.4-12.3 1.8-4.8 2.6-10.1 2.6-16 0-5.8-0.9-11.2-2.6-15.9S187.5 26.7 184.3 23.3zM186.5 65.9c-1.5 4.2-3.5 7.8-6.2 10.7 -2.7 2.9-5.9 5.2-9.7 6.7 -3.8 1.5-7.9 2.3-12.5 2.3 -4.5 0-8.7-0.8-12.4-2.3 -3.7-1.5-7-3.8-9.7-6.7 -2.7-2.9-4.8-6.5-6.3-10.7 -1.5-4.2-2.2-9-2.2-14.3 0-5.3 0.7-10.1 2.2-14.3 1.5-4.2 3.6-7.8 6.3-10.8 2.7-2.9 5.9-5.2 9.7-6.7 3.7-1.6 7.9-2.3 12.4-2.3 4.6 0 8.8 0.8 12.5 2.3 3.8 1.6 7 3.8 9.7 6.7 2.7 2.9 4.7 6.5 6.2 10.8 1.5 4.2 2.2 9 2.2 14.3C188.7 56.9 187.9 61.7 186.5 65.9z" class="b"/><rect x="216.3" width="82.2" height="103.1" class="a"/><path d="M261.3 50.3l26.3-36.8h-5.3c-0.4 0-0.7 0.1-0.9 0.3 -0.3 0.2-0.5 0.5-0.7 0.8l-22.3 31.6c-0.2 0.3-0.3 0.6-0.5 0.8 -0.1 0.3-0.2 0.5-0.4 0.8l-23.1-33.3c-0.2-0.3-0.4-0.5-0.6-0.8 -0.2-0.2-0.6-0.3-1.1-0.3h-5.4l26.2 37.1 -27.5 39h5c0.4 0 0.8-0.1 1.1-0.4 0.3-0.3 0.6-0.6 0.9-0.9l23.6-33.5c0.4-0.5 0.6-1 0.8-1.6l24 35.1c0.2 0.3 0.4 0.6 0.7 0.9 0.3 0.3 0.7 0.5 1.2 0.5h5.4L261.3 50.3z" class="b"/></svg>
